<svg id="Layer_1" data-name="Layer 1" xmlns="http://www.w3.org/2000/svg" viewBox="0 0 329.88 357.71"><title>symbol</title><g id="Symbol_1_1" data-name="Symbol 1 1"><path id="Path_2" data-name="Path 2" d="M38.16,106.08s69.52-24.49,135-14.66,61.69,26.24,101.23,53.7,64.06,38.06,77.53,78.82-13.84,65.84-33.64,117.81-15.43,49-55.4,79.7-103.64,24.94-103.64,24.94L25.64,106.59Z" transform="translate(-25.64 -89.09)" fill="#e6ebff"/><path id="Path_9" data-name="Path 9" d="M67.68,128.47s57.38-20.21,111.43-12.1S230,138,262.66,160.69s52.88,31.42,64,65.06S315.22,280.09,298.88,323s-12.74,40.48-45.73,65.78-85.54,20.59-85.54,20.59L57.33,128.9Z" transform="translate(-25.64 -89.09)" fill="#c0c9ee"/><path id="Path_10" data-name="Path 10" d="M112,162.13s39.14-13.79,76-8.26,34.74,14.77,57,30.23,36.07,21.43,43.65,44.38-7.79,37.07-18.94,66.32-8.69,27.61-31.19,44.87-58.35,14-58.35,14L105,162.42Z" transform="translate(-25.64 -89.09)" fill="#98a7e5"/><path id="Path_11" data-name="Path 11" d="M151.32,192s23-8.09,44.61-4.85,20.39,8.67,33.45,17.74,21.17,12.58,25.62,26-4.57,21.76-11.12,38.93-5.1,16.21-18.31,26.34-34.25,8.24-34.25,8.24L147.18,192.13Z" transform="translate(-25.64 -89.09)" fill="#647fee"/></g></svg>