<svg id="Layer_1" data-name="Layer 1" xmlns="http://www.w3.org/2000/svg" viewBox="0 0 397.25 419"><title>Symbol2</title><g id="Symbol_1_1" data-name="Symbol 1 1"><path id="Path_1" data-name="Path 1" d="M280.25,26.16S181.1-9.33,118.92,12.72s-36.13,50.2-63,112.59-49.36,80.24-44.53,137,52.09,66.59,97.47,105,45.58,48.94,109.23,56.3,155.44-32.77,155.44-32.77L408,49.69Z" transform="translate(-10.72 -5.5)" fill="#e6dbff"/><path id="Path_2" data-name="Path 2" d="M267.73,59.5S186.08,30.27,134.88,48.43,105.13,89.77,83,141.15,42.34,207.22,46.32,253.93s42.9,54.83,80.26,86.49,37.54,40.3,89.95,46.36,128-27,128-27L372.9,78.87Z" transform="translate(-10.72 -5.5)" fill="#bca3f5"/><path id="Path_3" data-name="Path 3" d="M251.84,101.81s-59.43-21.27-96.7-8.06-21.66,30.09-37.77,67.49-29.59,48.1-26.69,82.1,31.23,39.91,58.42,63,27.32,29.34,65.47,33.74,93.17-19.65,93.17-19.65l20.65-204.47Z" transform="translate(-10.72 -5.5)" fill="#8259df"/><path id="Path_4" data-name="Path 4" d="M234.94,146.82S199.14,134,176.69,142s-13,18.12-22.75,40.65-17.82,29-16.08,49.45,18.81,24,35.19,37.92,16.46,17.67,39.44,20.33,56.12-11.83,56.12-11.83l12.44-123.17Z" transform="translate(-10.72 -5.5)" fill="#6e37e8"/></g></svg>